<svg xmlns="http://www.w3.org/2000/svg" version="1.1" xmlns:xlink="http://www.w3.org/1999/xlink" xmlns:svgjs="http://svgjs.dev/svgjs" width="1500" height="522" viewBox="0 0 1500 522"><g transform="matrix(1,0,0,1,-0.9090909090909918,-0.2533744471670616)"><svg viewBox="0 0 396 138" data-background-color="#ffffff" preserveAspectRatio="xMidYMid meet" height="522" width="1500" xmlns="http://www.w3.org/2000/svg" xmlns:xlink="http://www.w3.org/1999/xlink"><g id="tight-bounds" transform="matrix(1,0,0,1,0.2400000000000091,0.0669840492510616)"><svg viewBox="0 0 395.52 137.86595395707636" height="137.86595395707636" width="395.52"><g><svg viewBox="0 0 665.219697231335 231.87486890633977" height="137.86595395707636" width="395.52"><g transform="matrix(1,0,0,1,0,83.89281464853477)"><svg viewBox="0 0 395.52 64.08923960927025" height="64.08923960927025" width="395.52"><g id="textblocktransform"><svg viewBox="0 0 395.52 64.08923960927025" height="64.08923960927025" width="395.52" id="textblock"><g><svg viewBox="0 0 395.52 64.08923960927025" height="64.08923960927025" width="395.52"><g transform="matrix(1,0,0,1,0,0)"><svg width="395.52" viewBox="2.45 -37.35 261.03000000000003 42.300000000000004" height="64.08923960927025" data-palette-color="#556970"><path d="M32.8-13.65L31.3-13.65Q31.3-6.75 31.65-3.9L31.65-3.9Q24.5 0.6 17.8 0.6 11.1 0.6 6.78-4.17 2.45-8.95 2.45-16.82 2.45-24.7 7.23-30.15 12-35.6 19.9-35.6L19.9-35.6Q26.25-35.6 32-31.3L32-31.3Q30.15-29.35 27.25-27.55L27.25-27.55Q23.85-32.05 17.3-32.05L17.3-32.05Q14.55-32.05 12.95-31.55L12.95-31.55Q8.1-27.45 8.1-18.35L8.1-18.35Q8.1-3.1 19.95-3.1L19.95-3.1Q24.2-3.1 26.25-4.4L26.25-4.4Q26.85-7.5 26.85-13.3L26.85-13.3 20.3-13.3 22.4-16.6Q26.35-16.3 29.25-16.3 32.15-16.3 34.2-16.4L34.2-16.4 32.8-13.65ZM45.75-0.6L45.75 0 39.3 0 39.3-0.6Q40.15-3.1 40.15-8.5L40.15-8.5 40.15-29.35Q40.15-33.35 37.85-35.55L37.85-35.55 37.85-36.15 44.7-37.35 45-36.85Q44.85-35.4 44.85-27.25L44.85-27.25 44.9-8.5Q44.9-3.1 45.75-0.6L45.75-0.6ZM62.1 0.6Q56.85 0.6 53.8-2.73 50.75-6.05 50.75-11.43 50.75-16.8 54.3-20.7 57.85-24.6 63.22-24.6 68.6-24.6 71.52-21.35 74.45-18.1 74.45-12.65 74.45-7.2 70.9-3.3 67.35 0.6 62.1 0.6ZM69.15-11.4L69.15-11.4Q69.15-16.35 67.6-19.05 66.05-21.75 62.1-21.75L62.1-21.75Q59.55-21.75 58.1-20.65L58.1-20.65Q57.2-19.5 56.62-17.15 56.05-14.8 56.05-12.65L56.05-12.65Q56.05-2.2 63.45-2.2L63.45-2.2Q65.75-2.2 67.2-3.25L67.2-3.25Q68.15-4.4 68.65-6.8 69.15-9.2 69.15-11.4ZM86.19-18L86.19-4.4Q89.49-2.7 92.39-2.7 95.29-2.7 96.34-3.3L96.34-3.3Q97.19-4.3 97.84-7.1 98.49-9.9 98.49-12.5L98.49-12.5Q98.49-20.85 93.29-20.85L93.29-20.85Q90.39-20.85 86.19-18L86.19-18ZM86.19-32.7L86.19-32.7 86.19-20.85Q90.34-24.55 94.47-24.55 98.59-24.55 101.22-21.3 103.84-18.05 103.84-13.4L103.84-13.4Q103.84-7.55 100.29-3.5 96.74 0.55 92.12 0.55 87.49 0.55 80.94-1.55L80.94-1.55 80.94-1.85Q81.49-3.35 81.49-8.7L81.49-8.7 81.49-29.35Q81.49-33.3 79.14-35.55L79.14-35.55 79.14-36.15 86.04-37.35 86.34-36.85Q86.19-35.4 86.19-32.7ZM119.39 0.55L119.39 0.55Q114.14 0.55 111.19-2.7 108.24-5.95 108.24-11.28 108.24-16.6 111.54-20.6 114.84-24.6 119.74-24.6L119.74-24.6Q128.69-24.6 128.69-13.55L128.69-13.55 126.84-11.75 113.54-11.75Q113.54-7.55 115.34-5.45 117.14-3.35 120.19-3.35L120.19-3.35Q121.39-3.35 123.59-4.08 125.79-4.8 127.49-5.8L127.49-5.8 128.74-3.9Q127.79-2.95 124.62-1.2 121.44 0.55 119.39 0.55ZM118.84-22.1L118.84-22.1Q116.74-22.1 115.59-21.15L115.59-21.15Q114.64-19.85 114.09-17.85 113.54-15.85 113.54-14.35L113.54-14.35 123.79-14.75Q123.79-22.1 118.84-22.1ZM148.89 0.6Q141.74 0.6 137.46-4.42 133.19-9.45 133.19-17.23 133.19-25 138.06-30.35 142.94-35.7 150.34-35.7 157.74-35.7 161.84-30.8 165.94-25.9 165.94-18.25L165.94-18.25Q165.94-8.75 159.29-3.1L159.29-3.1Q163.69 1 166.89 2.65L166.89 2.65 166.94 2.95 161.34 4.95Q158.44 1.4 156.14-1.05L156.14-1.05Q152.74 0.6 148.89 0.6L148.89 0.6ZM160.29-17.2L160.29-17.2Q160.29-23.25 158.04-27.35L158.04-27.35Q156.79-29.55 154.49-30.8 152.19-32.05 148.39-32.05 144.59-32.05 142.09-30.5L142.09-30.5Q138.84-26.4 138.84-18.1L138.84-18.1Q138.84-11.95 141.24-7.7L141.24-7.7Q142.49-5.45 144.91-4.13 147.34-2.8 150.69-2.8L150.69-2.8Q152.44-2.8 153.99-3.25L153.99-3.25Q152.74-4.55 149.24-7.8L149.24-7.8 149.24-8 152.69-9.5Q154.24-7.65 157.24-4.95L157.24-4.95Q160.29-9.35 160.29-17.2ZM180.14 0.55L180.14 0.55Q175.94 0.55 174.26-1.63 172.59-3.8 172.59-8.35L172.59-8.35 172.59-15.5Q172.59-20.25 171.09-23.65L171.09-23.65 171.09-24 178.03-24 178.03-23.65Q177.28-21 177.28-17L177.28-17 177.28-9.15Q177.28-6.15 178.03-4.85 178.78-3.55 181.69-3.55 184.59-3.55 188.49-6.3L188.49-6.3 188.49-15.5Q188.49-20.35 187.03-23.65L187.03-23.65 187.03-24 193.94-24 193.94-23.65Q193.19-21 193.19-17L193.19-17 193.19-8.55Q193.19-6.35 193.94-4.23 194.69-2.1 195.69-1.4L195.69-1.4 195.74-0.8 189.89 0.6Q189.04-1.7 188.69-3.8L188.69-3.8Q186.24-1.7 184.24-0.58 182.24 0.55 180.14 0.55ZM211.78 0.55L211.78 0.55Q206.53 0.55 203.58-2.7 200.63-5.95 200.63-11.28 200.63-16.6 203.93-20.6 207.23-24.6 212.13-24.6L212.13-24.6Q221.08-24.6 221.08-13.55L221.08-13.55 219.23-11.75 205.93-11.75Q205.93-7.55 207.73-5.45 209.53-3.35 212.58-3.35L212.58-3.35Q213.78-3.35 215.98-4.08 218.18-4.8 219.88-5.8L219.88-5.8 221.13-3.9Q220.18-2.95 217.01-1.2 213.83 0.55 211.78 0.55ZM211.23-22.1L211.23-22.1Q209.13-22.1 207.98-21.15L207.98-21.15Q207.03-19.85 206.48-17.85 205.93-15.85 205.93-14.35L205.93-14.35 216.18-14.75Q216.18-22.1 211.23-22.1ZM231.18-21.45L231.18-21.45Q230.28-20.55 230.28-18.98 230.28-17.4 231.28-16.53 232.28-15.65 233.81-15.25 235.33-14.85 237.08-14.25 238.83-13.65 240.35-12.98 241.88-12.3 242.88-10.8 243.88-9.3 243.88-7.15L243.88-7.15Q243.88-3.35 241.08-1.4 238.28 0.55 233.7 0.55 229.13 0.55 225.58-1.8L225.58-1.8Q225.73-4.35 227.08-6.35L227.08-6.35Q231.58-2.25 235.28-2.25L235.28-2.25Q236.88-2.25 238.13-2.9L238.13-2.9Q239.33-3.95 239.33-5.73 239.33-7.5 237.95-8.47 236.58-9.45 234.63-10 232.68-10.55 230.73-11.25 228.78-11.95 227.41-13.45 226.03-14.95 226.03-17.35L226.03-17.35Q226.03-20.85 228.66-22.73 231.28-24.6 235.28-24.6 239.28-24.6 243.13-22.9L243.13-22.9Q242.68-20.7 241.38-18.5L241.38-18.5Q237.83-22.05 233.98-22.05L233.98-22.05Q232.33-22.05 231.18-21.45ZM256.13-21.2L256.13-5.6Q256.13-2.95 257.73-2.95L257.73-2.95Q259.08-2.95 262.28-4.55L262.28-4.55 263.33-2.8Q261.73-1.7 259.33-0.58 256.93 0.55 254.93 0.55 252.93 0.55 252.18-0.7 251.43-1.95 251.43-4.3L251.43-4.3 251.43-21.15 246.93-20.9 248.13-24.15Q249.03-24.05 251.33-23.95L251.33-23.95Q251.23-26.45 251.03-28.45L251.03-28.45 256.13-29.75 256.13-24Q258.83-24.1 263.48-24.6L263.48-24.6 262.08-20.7Q259.38-21.1 256.13-21.2L256.13-21.2Z" opacity="1" transform="matrix(1,0,0,1,0,0)" fill="#556970" class="wordmark-text-0" data-fill-palette-color="primary" id="text-0"></path></svg></g></svg></g></svg></g></svg></g><g transform="matrix(1,0,0,1,433.3448283249952,0)"><svg viewBox="0 0 231.87486890633977 231.87486890633977" height="231.87486890633977" width="231.87486890633977"><g><svg viewBox="0 0 231.87486890633977 231.87486890633977" height="231.87486890633977" width="231.87486890633977"><g transform="matrix(1,0,0,1,61.284026018232325,61.28400372303168)"><svg viewBox="0 0 109.30681686987512 109.30686146027641" height="109.30686146027641" width="109.30681686987512"><g><svg version="1.1" xmlns="http://www.w3.org/2000/svg" xmlns:xlink="http://www.w3.org/1999/xlink" x="0" y="0" viewBox="0 -0.000028255407362417768 100.0000147625245 100.0000555563278" enable-background="new 0 0 100 100" xml:space="preserve" id="dxe-0" width="109.30681686987512" height="109.30686146027641" class="icon-dxe-0" data-fill-palette-color="accent"><path d="M96.705 32.148A50 50 0 0 0 85.296 14.587C76.358 5.68 64.068 0.142 50.483 0.012 50.322 0.011 50.162 0 50 0A49.76 49.76 0 0 0 25.305 6.53C14.702 12.567 6.528 22.365 2.592 34.114A49.9 49.9 0 0 0 0.003 49.879C0.003 49.92 0 49.959 0 50 0 52.961 0.272 55.857 0.766 58.677A49.6 49.6 0 0 0 4.117 69.875C11.744 87.458 29.174 99.793 49.514 99.988 49.677 99.989 49.837 100 50 100A49.77 49.77 0 0 0 74.637 93.504C89.777 84.91 100 68.654 100 50A49.8 49.8 0 0 0 96.705 32.148M29.643 18.708C30.107 16.305 30.723 14.165 31.463 12.31A41.8 41.8 0 0 1 47.986 8.051C49.467 9.269 50.981 10.785 52.491 12.573 54.256 14.661 56.014 17.122 57.715 19.933 61.741 26.591 65.433 35.191 68.051 45.349 68.547 47.277 68.982 49.197 69.367 51.104 63.787 54.312 57.142 57.283 49.589 59.69 44.523 61.304 39.467 62.516 34.563 63.318A110 110 0 0 1 31.949 54.649C29.373 44.65 28.42 35.442 28.68 27.714 28.791 24.426 29.123 21.406 29.643 18.708M8 50C8 46.125 8.535 42.378 9.518 38.815A41.8 41.8 0 0 1 16.506 24.664 42.3 42.3 0 0 1 21.384 19.269 62 62 0 0 0 20.982 22.392 76 76 0 0 0 20.613 31.572C20.748 39.242 21.909 47.742 24.202 56.645A119 119 0 0 0 26.437 64.261C24.708 64.381 23 64.46 21.343 64.46 17.132 64.46 13.369 64.06 10.172 63.327A42 42 0 0 1 8 50M14.277 72.086C16.505 72.324 18.852 72.46 21.342 72.46 23.932 72.46 26.61 72.315 29.342 72.055 32.389 79.364 36.022 85.726 39.97 90.785 29.154 88.135 19.985 81.299 14.277 72.086M70.531 80.177C70.049 83.045 69.364 85.565 68.516 87.701A41.8 41.8 0 0 1 52.011 91.949C47.114 87.925 41.878 80.687 37.549 70.912A115 115 0 0 0 52.017 67.313C58.88 65.125 65.162 62.479 70.722 59.531 71.604 67.025 71.555 74.088 70.531 80.177M75.797 43.354C73.493 34.416 70.314 26.291 66.598 19.398 65.072 16.566 63.455 13.939 61.769 11.556A61 61 0 0 0 60.026 9.214 41.7 41.7 0 0 1 66.563 11.398 42.1 42.1 0 0 1 80.736 21.389 42 42 0 0 1 88.317 32.805C86.897 36.944 82.823 41.768 76.543 46.429A120 120 0 0 0 75.797 43.354M78.522 80.82C79.711 73.207 79.583 64.365 78.191 55.108 83.771 51.401 88.267 47.38 91.457 43.276 91.811 45.467 92 47.711 92 50 92 62.183 86.809 73.148 78.522 80.82" fill="#556970" data-fill-palette-color="accent"></path></svg></g></svg></g><g id="text-0"><path d="M17.071 73.969l-0.254 0.73c2.233 0.778 3.832 1.27 4.795 1.478v0c0.653 2.831 0.602 5.331-0.154 7.501-0.756 2.17-2.153 3.688-4.192 4.553-2.037 0.859-4.33 0.844-6.879-0.044-2.556-0.89-4.448-2.414-5.676-4.572-1.226-2.165-1.392-4.528-0.5-7.091v0c0.716-2.056 2.095-3.775 4.136-5.157v0c0.423 0.821 0.762 1.805 1.016 2.95v0c-1.838 0.594-3.127 1.951-3.864 4.071v0c-0.311 0.892-0.477 1.625-0.5 2.199v0c0.78 2.038 2.648 3.571 5.602 4.6v0c4.941 1.72 8.08 0.66 9.418-3.18v0c0.48-1.379 0.627-2.474 0.44-3.284v0c-0.938-0.546-2.349-1.148-4.234-1.804v0l-1.11 3.189-1.247-1.583c0.546-1.243 0.983-2.335 1.311-3.279 0.326-0.936 0.59-1.745 0.792-2.427v0z" fill="#556970" data-fill-palette-color="accent"></path><path d="M34.079 57.851l0.258 0.175-1.872 2.75-0.258-0.176c-0.543-0.726-1.581-1.612-3.115-2.656v0l-8.871-6.04c-1.135-0.773-2.238-1.046-3.309-0.818v0l-0.249-0.17 1.47-3.266 0.301 0.023c0.383 0.318 1.732 1.265 4.047 2.84v0l7.985 5.413c1.534 1.044 2.738 1.686 3.613 1.925z" fill="#556970" data-fill-palette-color="accent"></path><path d="M50.222 41.542c-1.353 1.19-2.801 1.7-4.342 1.529-1.537-0.165-2.913-0.94-4.13-2.323-1.221-1.389-1.816-2.989-1.785-4.8 0.031-1.811 0.738-3.325 2.123-4.542 1.384-1.216 2.822-1.736 4.315-1.559 1.493 0.177 2.857 0.967 4.091 2.37 1.234 1.404 1.836 3.011 1.805 4.823-0.031 1.811-0.723 3.312-2.077 4.502zM48.874 34.499v0c-1.123-1.278-2.192-2.087-3.205-2.428-1.012-0.35-2.029-0.076-3.051 0.822v0c-0.654 0.575-1.044 1.172-1.169 1.79v0c0.03 0.5 0.237 1.117 0.622 1.849 0.384 0.742 0.82 1.389 1.306 1.942v0c2.366 2.692 4.506 3.197 6.418 1.517v0c0.589-0.518 0.952-1.078 1.091-1.682v0c-0.015-0.504-0.229-1.123-0.643-1.857-0.413-0.734-0.87-1.385-1.369-1.953z" fill="#556970" data-fill-palette-color="accent"></path><path d="M68.4 18.315l2.942 6.356c1.272 0.053 2.361-0.13 3.267-0.549 0.906-0.419 1.476-0.798 1.711-1.136v0c0.124-0.434 0.084-1.135-0.121-2.103-0.196-0.965-0.482-1.855-0.859-2.669v0c-1.202-2.596-2.614-3.518-4.237-2.767v0c-0.9 0.417-1.801 1.373-2.703 2.868zM65.217 11.439v0l2.566 5.544c0.76-1.755 1.782-2.929 3.065-3.522 1.289-0.597 2.576-0.576 3.86 0.062 1.288 0.629 2.267 1.667 2.937 3.114v0c0.844 1.824 1.006 3.624 0.484 5.401-0.524 1.771-1.506 2.989-2.947 3.657-1.441 0.667-3.333 1.148-5.677 1.443v0l-0.067-0.146c-0.04-0.55-0.446-1.657-1.218-3.323v0l-4.466-9.649c-0.568-1.228-1.384-2.024-2.446-2.389v0l-0.126-0.273 2.966-2.06 0.247 0.174c0.16 0.472 0.434 1.128 0.822 1.967z" fill="#556970" data-fill-palette-color="accent"></path><path d="M102.301 17.935v0c-1.781 0.272-3.256-0.065-4.425-1.011-1.169-0.953-1.892-2.333-2.168-4.141-0.276-1.808 0.041-3.476 0.953-5.005 0.912-1.529 2.198-2.42 3.861-2.674v0c3.04-0.465 4.846 1.18 5.42 4.935v0l-0.804 1.058-6.774 1.036c0.218 1.424 0.689 2.446 1.414 3.067 0.718 0.615 1.593 0.844 2.626 0.686v0c0.411-0.063 0.968-0.273 1.672-0.631 0.711-0.359 1.329-0.752 1.853-1.178v0l0.783 0.866c-0.268 0.373-0.897 0.94-1.884 1.701-0.989 0.754-1.832 1.185-2.527 1.291zM100.261 6.455v0c-0.715 0.109-1.244 0.353-1.586 0.731v0c-0.25 0.492-0.416 1.09-0.499 1.794-0.088 0.711-0.093 1.322-0.014 1.832v0l5.193-1.008c-0.381-2.49-1.412-3.606-3.094-3.349z" fill="#556970" data-fill-palette-color="accent"></path><path d="M131.498 18.483c-2.425-0.364-4.234-1.509-5.429-3.436-1.195-1.92-1.595-4.202-1.198-6.846 0.396-2.637 1.554-4.739 3.476-6.306 1.929-1.567 4.148-2.162 6.66-1.785 2.518 0.378 4.347 1.502 5.489 3.374 1.142 1.872 1.518 4.106 1.128 6.703v0c-0.484 3.226-1.999 5.627-4.546 7.203v0c1.282 1.615 2.424 2.785 3.426 3.511v0l0.007 0.154-3.005 0.596c-0.806-1.354-1.534-2.506-2.184-3.458v0c-1.244 0.389-2.518 0.486-3.824 0.29zM138.661 10.291v0c0.308-2.054 0.186-3.833-0.367-5.339v0c-0.312-0.812-0.827-1.489-1.545-2.031-0.718-0.541-1.723-0.909-3.015-1.102-1.285-0.193-2.391-0.091-3.318 0.305v0c-1.315 1.225-2.184 3.249-2.608 6.071v0c-0.313 2.087-0.17 3.91 0.43 5.47v0c0.309 0.832 0.84 1.535 1.594 2.109 0.761 0.575 1.707 0.947 2.84 1.117v0c0.596 0.089 1.168 0.094 1.715 0.014v0c-0.358-0.501-1.048-1.393-2.067-2.678v0l0.014-0.099 1.874-0.502c0.429 0.708 1.085 1.596 1.968 2.663v0c1.257-1.336 2.086-3.335 2.485-5.998z" fill="#556970" data-fill-palette-color="accent"></path><path d="M160.174 27.333v0c-1.298-0.64-2.037-1.42-2.219-2.339-0.185-0.928 0.068-2.092 0.759-3.491v0l1.628-3.298c0.723-1.466 1.112-2.836 1.165-4.109v0l0.08-0.163 3.208 1.584-0.08 0.162c-0.631 0.704-1.251 1.672-1.859 2.904v0l-1.788 3.622c-0.457 0.925-0.668 1.642-0.635 2.152 0.03 0.515 0.492 0.994 1.387 1.435 0.895 0.442 2.152 0.535 3.772 0.281v0l2.094-4.244c0.738-1.496 1.132-2.863 1.183-4.1v0l0.08-0.163 3.19 1.575-0.08 0.162c-0.637 0.701-1.26 1.668-1.868 2.899v0l-1.925 3.902c-0.335 0.679-0.545 1.401-0.631 2.165-0.095 0.767-0.042 1.335 0.157 1.703v0l-0.111 0.292-3.023-0.685c0.091-0.836 0.243-1.606 0.455-2.308v0c-1.077 0.275-2.008 0.436-2.793 0.482-0.788 0.037-1.503-0.103-2.146-0.42z" fill="#556970" data-fill-palette-color="accent"></path><path d="M185.187 44.631v0c-1.327-1.219-1.986-2.581-1.979-4.084 0.012-1.508 0.637-2.936 1.875-4.282 1.238-1.347 2.738-2.142 4.501-2.388 1.763-0.245 3.263 0.201 4.501 1.34v0c2.264 2.081 2.111 4.52-0.459 7.316v0l-1.329 0.035-5.046-4.638c-0.975 1.06-1.477 2.068-1.508 3.022-0.031 0.945 0.338 1.771 1.107 2.478v0c0.306 0.281 0.819 0.584 1.539 0.91 0.725 0.33 1.418 0.566 2.079 0.709v0l-0.187 1.152c-0.459 0.024-1.294-0.111-2.506-0.406-1.207-0.3-2.07-0.688-2.588-1.164zM192.868 35.858v0c-0.533-0.49-1.053-0.75-1.562-0.78v0c-0.54 0.113-1.111 0.357-1.712 0.734-0.61 0.377-1.089 0.755-1.438 1.134v0l4.034 3.421c1.704-1.855 1.93-3.358 0.678-4.509z" fill="#556970" data-fill-palette-color="accent"></path><path d="M210.261 57.323v0c-0.429-0.101-0.872-0.007-1.331 0.283-0.453 0.286-0.714 0.657-0.783 1.113-0.072 0.45-0.028 0.933 0.132 1.45 0.166 0.513 0.322 1.08 0.469 1.701 0.147 0.621 0.263 1.213 0.35 1.776 0.081 0.567-0.005 1.133-0.258 1.697-0.248 0.561-0.686 1.04-1.315 1.437v0c-1.099 0.694-2.187 0.816-3.265 0.364-1.082-0.457-2.041-1.349-2.879-2.674-0.841-1.331-1.246-2.723-1.215-4.178v0c0.767-0.429 1.563-0.631 2.388-0.605v0c-0.362 2.06-0.203 3.628 0.476 4.703v0c0.294 0.464 0.651 0.817 1.073 1.058v0c0.518 0.156 1.035 0.071 1.551-0.255 0.515-0.326 0.789-0.776 0.822-1.352 0.029-0.581-0.056-1.205-0.256-1.871-0.194-0.67-0.371-1.351-0.53-2.043-0.151-0.689-0.135-1.373 0.047-2.05 0.185-0.672 0.626-1.228 1.323-1.669v0c1.014-0.641 2.032-0.754 3.055-0.338 1.033 0.417 1.916 1.206 2.65 2.367 0.734 1.161 1.204 2.457 1.411 3.887v0c-0.717 0.271-1.515 0.419-2.395 0.444v0c0.379-1.682 0.216-3.081-0.489-4.197v0c-0.304-0.481-0.648-0.831-1.031-1.048z" fill="#556970" data-fill-palette-color="accent"></path><path d="M222.812 84.662l-7.652 2.431c-0.868 0.276-1.219 0.676-1.053 1.2v0c0.14 0.441 0.638 1.101 1.494 1.982v0l-0.698 0.791c-0.524-0.41-1.096-0.949-1.715-1.617-0.613-0.67-1.025-1.333-1.234-1.991-0.207-0.651-0.146-1.166 0.184-1.545 0.332-0.372 0.88-0.68 1.647-0.924v0l8.274-2.629-0.827-2.173 1.788 0.086c0.055 0.306 0.186 0.841 0.393 1.604v0c0.805-0.298 1.526-0.583 2.164-0.856v0l1.429 2.308-2.815 0.895c0.312 0.871 0.792 2.04 1.441 3.507v0l-2.135-0.081c-0.152-0.922-0.381-1.917-0.685-2.988z" fill="#556970" data-fill-palette-color="accent"></path><path d="M18.914 161.992l-0.263-0.749c-2.307 0.81-3.918 1.439-4.833 1.887v0c-2.343-1.862-3.907-3.911-4.692-6.149-0.785-2.238-0.632-4.361 0.459-6.37 1.087-2 2.949-3.463 5.585-4.387 2.63-0.923 5.134-0.907 7.514 0.047 2.379 0.954 4.033 2.753 4.96 5.395v0c0.745 2.124 0.737 4.399-0.023 6.824v0c-0.868-0.391-1.773-0.965-2.713-1.721v0c1.105-1.666 1.274-3.592 0.507-5.78v0c-0.324-0.923-0.664-1.62-1.021-2.091v0c-1.942-1.143-4.433-1.182-7.474-0.115v0c-5.095 1.788-6.947 4.663-5.556 8.627v0c0.499 1.422 1.086 2.398 1.762 2.928v0c1.108-0.161 2.629-0.581 4.563-1.26v0l-1.155-3.291 2.029 0.471c0.362 1.357 0.714 2.522 1.056 3.495 0.339 0.967 0.645 1.787 0.916 2.458v0z" fill="#556970" data-fill-palette-color="accent"></path><path d="M24.386 185.125l-0.265 0.181-1.933-2.829 0.266-0.182c0.9-0.25 2.139-0.913 3.715-1.99v0l9.152-6.252c1.167-0.797 1.844-1.754 2.03-2.872v0l0.258-0.175 2.582 2.641-0.133 0.286c-0.451 0.243-1.868 1.179-4.252 2.807v0l-8.214 5.648c-1.577 1.077-2.645 1.989-3.206 2.737z" fill="#556970" data-fill-palette-color="accent"></path><path d="M41.564 204.431c-1.394-1.225-2.107-2.636-2.139-4.233-0.037-1.602 0.572-3.118 1.828-4.548 1.256-1.429 2.812-2.247 4.669-2.452 1.861-0.21 3.507 0.312 4.936 1.569 1.429 1.256 2.154 2.659 2.173 4.21 0.014 1.547-0.615 3.045-1.888 4.494-1.273 1.449-2.838 2.282-4.695 2.496-1.857 0.205-3.485-0.307-4.884-1.536zM48.591 202.112v0c1.154-1.314 1.841-2.511 2.061-3.594 0.22-1.082-0.196-2.085-1.248-3.01v0c-0.674-0.593-1.334-0.913-1.978-0.961v0c-0.511 0.095-1.117 0.388-1.816 0.879-0.699 0.491-1.301 1.024-1.805 1.598v0c-2.445 2.783-2.684 5.039-0.716 6.768v0c0.609 0.535 1.231 0.832 1.866 0.89v0c0.521-0.086 1.131-0.389 1.828-0.908 0.688-0.519 1.291-1.073 1.808-1.662z" fill="#556970" data-fill-palette-color="accent"></path><path d="M71.016 212.007l-3.034 6.557c0.805 1.037 1.675 1.772 2.611 2.205 0.93 0.43 1.609 0.63 2.037 0.599v0c0.423-0.196 0.946-0.696 1.569-1.499 0.623-0.804 1.129-1.626 1.517-2.465v0c1.241-2.681 1.025-4.409-0.647-5.182v0c-0.93-0.43-2.281-0.502-4.053-0.215zM74.295 204.921v0l-2.646 5.718c1.883-0.575 3.487-0.557 4.813 0.057 1.331 0.616 2.175 1.641 2.529 3.075 0.361 1.437 0.196 2.903-0.496 4.399v0c-0.869 1.879-2.177 3.204-3.922 3.976-1.739 0.775-3.353 0.818-4.843 0.128-1.483-0.686-3.124-1.855-4.921-3.506v0l0.068-0.146c0.399-0.399 0.996-1.458 1.792-3.179v0l4.608-9.959c0.588-1.271 0.672-2.442 0.254-3.514v0l0.131-0.283 3.598 0.957 0.032 0.314c-0.262 0.44-0.595 1.094-0.997 1.963z" fill="#556970" data-fill-palette-color="accent"></path><path d="M100.349 231.078v0c-1.841-0.282-3.191-1.071-4.049-2.368-0.859-1.297-1.146-2.876-0.861-4.737 0.286-1.867 1.115-3.411 2.488-4.631 1.367-1.228 2.908-1.71 4.623-1.447v0c3.139 0.48 4.412 2.658 3.819 6.531v0l-1.118 0.795-6.983-1.069c-0.225 1.47-0.079 2.621 0.437 3.452 0.517 0.831 1.308 1.329 2.375 1.492v0c0.424 0.065 1.039 0.03 1.845-0.104 0.808-0.141 1.536-0.341 2.186-0.6v0l0.502 1.103c-0.382 0.28-1.176 0.643-2.382 1.089-1.206 0.439-2.166 0.604-2.882 0.494zM101.881 219.144v0c-0.735-0.113-1.33-0.034-1.785 0.235v0c-0.4 0.4-0.75 0.936-1.049 1.609-0.299 0.673-0.489 1.27-0.569 1.793v0l5.406 0.614c0.393-2.569-0.274-3.986-2.003-4.251z" fill="#556970" data-fill-palette-color="accent"></path><path d="M133.489 230.571c-2.504 0.376-4.637-0.205-6.399-1.742-1.762-1.537-2.847-3.668-3.256-6.391-0.409-2.723 0.097-5.15 1.518-7.28 1.428-2.131 3.437-3.392 6.027-3.78 2.597-0.39 4.74 0.169 6.43 1.676 1.695 1.5 2.744 3.588 3.146 6.265v0c0.499 3.326-0.265 6.154-2.293 8.484v0c1.753 1.207 3.232 2.014 4.438 2.422v0l0.054 0.155-2.783 1.495c-1.201-1.093-2.27-2.01-3.207-2.75v0c-1.105 0.762-2.33 1.244-3.675 1.446zM138.067 220.322v0c-0.318-2.12-0.98-3.84-1.984-5.159v0c-0.553-0.703-1.263-1.213-2.129-1.53-0.875-0.323-1.978-0.384-3.31-0.184-1.332 0.2-2.394 0.637-3.187 1.312v0c-0.924 1.609-1.167 3.867-0.731 6.776v0c0.323 2.153 1.017 3.912 2.083 5.276v0c0.556 0.723 1.292 1.252 2.21 1.588 0.924 0.335 1.973 0.415 3.145 0.239v0c0.61-0.092 1.174-0.258 1.694-0.498v0c-0.506-0.391-1.457-1.062-2.853-2.01v0l-0.016-0.109 1.701-1.059c0.641 0.568 1.555 1.243 2.743 2.027v0c0.836-1.697 1.047-3.92 0.634-6.669z" fill="#556970" data-fill-palette-color="accent"></path><path d="M166.036 220.44v0c-1.333 0.659-2.438 0.775-3.313 0.349-0.87-0.429-1.661-1.365-2.374-2.806v0l-1.688-3.415c-0.745-1.507-1.624-2.68-2.635-3.517v0l-0.085-0.171 3.315-1.639 0.085 0.171c0.175 0.96 0.576 2.073 1.203 3.34v0l1.848 3.739c0.472 0.955 0.931 1.58 1.375 1.876 0.442 0.29 1.123 0.207 2.042-0.247 0.919-0.454 1.782-1.423 2.588-2.905v0l-2.169-4.387c-0.76-1.537-1.626-2.716-2.599-3.535v0l-0.085-0.171 3.288-1.626 0.085 0.171c0.175 0.96 0.576 2.073 1.203 3.34v0l1.99 4.027c0.344 0.697 0.804 1.325 1.38 1.885 0.567 0.557 1.064 0.868 1.492 0.933v0l0.17 0.274-2.463 2.048c-0.632-0.599-1.167-1.205-1.605-1.819v0c-0.451 1.053-0.903 1.915-1.356 2.587-0.461 0.669-1.025 1.168-1.692 1.498z" fill="#556970" data-fill-palette-color="accent"></path><path d="M194.142 200.996v0c-1.371 1.261-2.831 1.821-4.38 1.681-1.549-0.14-2.961-0.903-4.236-2.289-1.279-1.39-1.966-3.003-2.06-4.836-0.104-1.834 0.483-3.339 1.76-4.514v0c2.337-2.15 4.832-1.783 7.486 1.102v0l-0.079 1.369-5.199 4.783c1.007 1.095 1.996 1.7 2.968 1.816 0.972 0.116 1.855-0.191 2.649-0.921v0c0.316-0.29 0.673-0.792 1.072-1.505 0.395-0.718 0.694-1.412 0.898-2.082v0l1.175 0.298c-0.02 0.473-0.233 1.32-0.639 2.54-0.411 1.216-0.883 2.068-1.415 2.558zM185.783 192.341v0c-0.547 0.503-0.858 1.017-0.931 1.54v0c0.062 0.562 0.262 1.17 0.599 1.825 0.338 0.654 0.686 1.176 1.044 1.565v0l3.858-3.836c-1.76-1.913-3.283-2.278-4.57-1.094z" fill="#556970" data-fill-palette-color="accent"></path><path d="M201.867 173.485v0c0.094 0.44 0.379 0.811 0.854 1.112 0.47 0.297 0.93 0.378 1.38 0.243 0.456-0.132 0.887-0.386 1.292-0.764 0.409-0.383 0.871-0.781 1.385-1.193 0.505-0.41 1.005-0.779 1.499-1.109 0.49-0.324 1.054-0.494 1.691-0.512 0.637-0.017 1.278 0.179 1.924 0.587v0c1.138 0.72 1.733 1.683 1.786 2.891 0.053 1.207-0.354 2.495-1.221 3.865-0.867 1.37-1.986 2.362-3.358 2.976v0c-0.739-0.523-1.28-1.178-1.622-1.965v0c2.081-0.57 3.471-1.407 4.169-2.511v0c0.304-0.481 0.479-0.97 0.523-1.465v0c-0.088-0.563-0.398-1.013-0.93-1.35-0.532-0.337-1.073-0.39-1.623-0.159-0.556 0.227-1.1 0.58-1.634 1.059-0.533 0.479-1.089 0.944-1.667 1.395-0.578 0.451-1.222 0.741-1.931 0.871-0.709 0.13-1.423-0.032-2.141-0.487v0c-1.047-0.663-1.605-1.567-1.674-2.711-0.063-1.142 0.284-2.31 1.04-3.504 0.759-1.2 1.757-2.214 2.994-3.041v0c0.58 0.549 1.075 1.227 1.484 2.033v0c-1.738 0.391-2.97 1.161-3.697 2.311v0c-0.315 0.498-0.49 0.974-0.523 1.428z" fill="#556970" data-fill-palette-color="accent"></path><path d="M213.596 148.59l7.897 2.523c0.893 0.285 1.427 0.157 1.6-0.386v0c0.145-0.453 0.118-1.306-0.079-2.557v0l1.061-0.252c0.197 0.661 0.357 1.457 0.481 2.391 0.118 0.931 0.069 1.731-0.144 2.401-0.216 0.676-0.575 1.075-1.078 1.196-0.501 0.114-1.147 0.045-1.938-0.208v0l-8.529-2.725-0.604 2.318-1.454-1.129c0.13-0.296 0.337-0.824 0.623-1.584v0c-0.853-0.237-1.628-0.429-2.328-0.574v0l0.165-2.796 2.91 0.93c0.26-0.923 0.554-2.197 0.884-3.822v0l1.755 1.342c-0.432 0.868-0.839 1.845-1.222 2.932z" fill="#556970" data-fill-palette-color="accent"></path><path d="M1.406 118.02c0-4.058 3.289-7.347 7.347-7.347 4.058 0 7.347 3.289 7.347 7.347 0 4.058-3.289 7.347-7.347 7.347-4.058 0-7.347-3.289-7.347-7.347z" fill="#556970" data-fill-palette-color="accent"></path><path d="M215.775 118.02c0-4.058 3.289-7.347 7.347-7.347 4.058 0 7.347 3.289 7.347 7.347 0 4.058-3.289 7.347-7.347 7.347-4.058 0-7.347-3.289-7.347-7.347z" fill="#556970" data-fill-palette-color="accent"></path></g><g id="text-1"></g></svg></g></svg></g></svg></g><defs></defs></svg><rect width="395.52" height="137.86595395707636" fill="none" stroke="none" visibility="hidden"></rect></g></svg></g></svg>